<?xml version="1.0" encoding="UTF-8"?>
<svg id="_Слой_1" data-name="Слой 1" xmlns="http://www.w3.org/2000/svg" viewBox="0 0 304.16 255.95">
  <defs>
    <style>
      .cls-1 {
        fill: #62656f;
      }

      .cls-1, .cls-2, .cls-3, .cls-4, .cls-5, .cls-6, .cls-7, .cls-8, .cls-9, .cls-10, .cls-11, .cls-12, .cls-13, .cls-14, .cls-15, .cls-16, .cls-17, .cls-18, .cls-19, .cls-20, .cls-21, .cls-22, .cls-23, .cls-24, .cls-25, .cls-26, .cls-27, .cls-28, .cls-29, .cls-30, .cls-31, .cls-32, .cls-33, .cls-34, .cls-35, .cls-36, .cls-37, .cls-38, .cls-39, .cls-40, .cls-41, .cls-42, .cls-43, .cls-44, .cls-45, .cls-46, .cls-47, .cls-48, .cls-49, .cls-50, .cls-51, .cls-52, .cls-53, .cls-54, .cls-55, .cls-56, .cls-57, .cls-58, .cls-59, .cls-60, .cls-61, .cls-62, .cls-63, .cls-64, .cls-65, .cls-66, .cls-67, .cls-68, .cls-69, .cls-70, .cls-71, .cls-72, .cls-73, .cls-74, .cls-75, .cls-76, .cls-77, .cls-78, .cls-79, .cls-80, .cls-81, .cls-82, .cls-83, .cls-84, .cls-85, .cls-86, .cls-87, .cls-88, .cls-89, .cls-90, .cls-91, .cls-92, .cls-93, .cls-94 {
        fill-rule: evenodd;
      }

      .cls-2 {
        fill: #2d9fbf;
      }

      .cls-3 {
        fill: #f3bc3f;
      }

      .cls-4 {
        fill: #28a9c8;
      }

      .cls-5 {
        fill: #e49627;
      }

      .cls-6 {
        fill: #27577f;
      }

      .cls-7 {
        fill: #f7e1ae;
      }

      .cls-8 {
        fill: #8d8f97;
      }

      .cls-9 {
        fill: #1a4a75;
      }

      .cls-10 {
        fill: #202a41;
      }

      .cls-11 {
        fill: #d4791a;
      }

      .cls-12 {
        fill: #3daac4;
      }

      .cls-13 {
        fill: #f4c34c;
      }

      .cls-14 {
        fill: #1d6e97;
      }

      .cls-15 {
        fill: #f5cc68;
      }

      .cls-16 {
        fill: #35a9c4;
      }

      .cls-17 {
        fill: #eba026;
      }

      .cls-18 {
        fill: #c46a1b;
      }

      .cls-19 {
        fill: #e29020;
      }

      .cls-20 {
        fill: #171c2e;
      }

      .cls-21 {
        fill: #34b1cb;
      }

      .cls-22 {
        fill: #161d30;
      }

      .cls-23 {
        fill: #080914;
      }

      .cls-24 {
        fill: #131727;
      }

      .cls-25 {
        fill: #2d88b1;
      }

      .cls-26 {
        fill: #f2c768;
      }

      .cls-27 {
        fill: #b86119;
      }

      .cls-28 {
        fill: #151b2e;
      }

      .cls-29 {
        fill: #d88222;
      }

      .cls-30 {
        fill: #162c48;
      }

      .cls-31 {
        fill: #17233a;
      }

      .cls-32 {
        fill: #1e4366;
      }

      .cls-33 {
        fill: #3cb8cd;
      }

      .cls-34 {
        fill: #182035;
      }

      .cls-35 {
        fill: #17253f;
      }

      .cls-36 {
        fill: #1f6592;
      }

      .cls-37 {
        fill: #2487af;
      }

      .cls-38 {
        fill: #0c0e1d;
      }

      .cls-39 {
        fill: #2280a7;
      }

      .cls-40 {
        fill: #ce751c;
      }

      .cls-41 {
        fill: #0f1325;
      }

      .cls-42 {
        fill: #227099;
      }

      .cls-43 {
        fill: #0a0c18;
      }

      .cls-44 {
        fill: #2395b9;
      }

      .cls-45 {
        fill: #2882a9;
      }

      .cls-46 {
        fill: #f3bf4e;
      }

      .cls-47 {
        fill: #181f31;
      }

      .cls-48 {
        fill: #25759f;
      }

      .cls-49 {
        fill: #4cbcce;
      }

      .cls-50 {
        fill: #3593b7;
      }

      .cls-51 {
        fill: #62c7d4;
      }

      .cls-52 {
        fill: #cb7429;
      }

      .cls-53 {
        fill: #db821b;
      }

      .cls-54 {
        fill: #101527;
      }

      .cls-55 {
        fill: #2a85a9;
      }

      .cls-56 {
        fill: #20324c;
      }

      .cls-57 {
        fill: #23638c;
      }

      .cls-58 {
        fill: #1d4364;
      }

      .cls-59 {
        fill: #f1c06e;
      }

      .cls-60 {
        fill: #2d94b7;
      }

      .cls-61 {
        fill: #d6dce1;
      }

      .cls-62 {
        fill: #1d4973;
      }

      .cls-63 {
        fill: #171f33;
      }

      .cls-64 {
        fill: #226994;
      }

      .cls-65 {
        fill: #21547d;
      }

      .cls-66 {
        fill: #3198bb;
      }

      .cls-67 {
        fill: #ee9f25;
      }

      .cls-68 {
        fill: #484b57;
      }

      .cls-69 {
        fill: #52c7d7;
      }

      .cls-70 {
        fill: #257aa2;
      }

      .cls-71 {
        fill: #3eadc6;
      }

      .cls-72 {
        fill: #3ab6cc;
      }

      .cls-73 {
        fill: #1d4f73;
      }

      .cls-74 {
        fill: #f2c13f;
      }

      .cls-75 {
        fill: #3593b8;
      }

      .cls-76 {
        fill: #1b2842;
      }

      .cls-77 {
        fill: #f2d194;
      }

      .cls-78 {
        fill: #2186ac;
      }

      .cls-79 {
        fill: #111729;
      }

      .cls-80 {
        fill: #eb9d28;
      }

      .cls-81 {
        fill: #1c739a;
      }

      .cls-82 {
        fill: #e18e25;
      }

      .cls-83 {
        fill: #0d0e1c;
      }

      .cls-84 {
        fill: #2a97b9;
      }

      .cls-85 {
        fill: #ab5c1b;
      }

      .cls-86 {
        fill: #3eb6ca;
      }

      .cls-87 {
        fill: #f0ae2f;
      }

      .cls-88 {
        fill: #f4c349;
      }

      .cls-89 {
        fill: #cb7828;
      }

      .cls-90 {
        fill: #73d3db;
      }

      .cls-91 {
        fill: #21739c;
      }

      .cls-92 {
        fill: #f8dfa2;
      }

      .cls-93 {
        fill: #3d424f;
      }

      .cls-94 {
        fill: #1e5383;
      }
    </style>
  </defs>
  <path class="cls-23" d="M56.12,45.95c.98-11.92,1.31-23.92,1-36,1.22-.96,2.55-.8,4,.5,3.75,2.62,7.58,5.12,11.5,7.5,.67,6.33,.67,12.67,0,19-5.18,3.7-10.68,6.7-16.5,9Z"/>
  <path class="cls-47" d="M57.12,9.95c.31,12.08-.02,24.08-1,36-4.95-3.11-9.79-6.45-14.5-10-.83-5.7-.66-11.36,.5-17,4.77-3.45,9.77-6.45,15-9Z"/>
  <path class="cls-18" d="M288.12,168.95c4.65,2.3,9.32,4.64,14,7,2.06,6.39,2.56,13.06,1.5,20-4.81,3.65-9.98,6.65-15.5,9v-36Z"/>
  <path class="cls-19" d="M288.12,185.95v19c-4.55-3.44-9.55-6.11-15-8-.84-.34-1.17-1.01-1-2v-1c.67,0,1-.33,1-1,5.15-2.08,10.15-4.41,15-7Z"/>
  <path class="cls-13" d="M288.12,177.95v8c-4.85,2.59-9.85,4.92-15,7-.33-5.04,0-10.04,1-15,2.55,1.3,5.22,2.3,8,3,1.45-2.06,3.45-3.06,6-3Z"/>
  <path class="cls-15" d="M288.12,168.95v9c-2.55-.06-4.55,.94-6,3-2.78-.7-5.45-1.7-8-3-.99,4.96-1.33,9.96-1,15,0,.67-.33,1-1,1-.33-6.04,0-12.04,1-18,4.9-2.62,9.9-4.95,15-7Z"/>
  <path class="cls-91" d="M205.12,195.95h-4v20c-3.37-1.36-6.71-2.69-10-4v-7c-.69-7.47,2.64-11.3,10-11.5,1.57,.61,2.9,1.44,4,2.5Z"/>
  <path class="cls-72" d="M64.12,180.95c.7,4.68,.7,9.02,0,13-5.51,4-11.18,7.84-17,11.5-2.59,.45-4.59-.55-6-3,6.83-4.92,13.83-9.58,21-14,.62-2.61,1.29-5.11,2-7.5Z"/>
  <path class="cls-2" d="M73.12,174.95v25l-9-6c.7-3.98,.7-8.32,0-13,2.79-2.23,5.79-4.23,9-6Z"/>
  <path class="cls-64" d="M73.12,174.95c3.78,1.73,7.45,3.73,11,6,4.13,.98,8.47,1.32,13,1-3.48,.82-7.14,1.32-11,1.5,.63,1.89,1.63,3.56,3,5-1.88,.2-3.55,.7-5,1.5v1c-3.38,3.38-7.04,6.38-11,9v-25Z"/>
  <path class="cls-94" d="M97.12,181.95h14v8h-27c1.45-.8,3.12-1.3,5-1.5-1.37-1.44-2.37-3.11-3-5,3.86-.18,7.52-.68,11-1.5Z"/>
  <path class="cls-28" d="M123.12,168.95c10.33,7.33,20.67,14.67,31,22,.33,8.18,0,16.18-1,24-11.67-8-23.33-16-35-24-1.35-1.1-2.85-2.1-4.5-3-.67-4-.67-8,0-12,2.5-3.35,5.67-5.68,9.5-7Z"/>
  <path class="cls-83" d="M156.12,214.95c-.99-7.82-1.33-15.82-1-24,9.33-6.67,18.67-13.33,28-20,1.54-.2,2.88-.87,4-2,1.24,.75,2.57,1.08,4,1,.33,7.7,0,15.36-1,23-11.08,7.75-22.42,15.09-34,22Z"/>
  <path class="cls-33" d="M162.12,154.95c7.48,3.64,14.32,8.3,20.5,14,.46,.59,.63,1.26,.5,2-1.11,.06-2.11,.39-3,1-8.82-1.57-17.48-3.9-26-7-1-.33-1.67-1-2-2,4.54-1.26,7.88-3.92,10-8Z"/>
  <path class="cls-90" d="M124.12,142.95c2.38,2.39,5.05,4.39,8,6,2.67,2.67,5.33,5.33,8,8,3.81,4.17,8.31,7.5,13.5,10,.46-.59,.63-1.26,.5-2,8.52,3.1,17.18,5.43,26,7-8.43,5.24-16.76,10.74-25,16.5-10.52-5.82-20.02-13.32-28.5-22.5-1.08-7.65-1.91-15.31-2.5-23Z"/>
  <path class="cls-54" d="M225.12,147.95c-5.32,12.82-11.32,25.32-18,37.5,.23,.4,.56,.57,1,.5-2.75,2.71-6.08,4.37-10,5-.17-8.01,0-16.01,.5-24,8.95-6.22,17.78-12.55,26.5-19Z"/>
  <path class="cls-61" d="M108.12,163.95h5c1.55,1.89,3.55,2.89,6,3,1.49,.49,2.83,1.15,4,2-3.83,1.32-7,3.65-9.5,7-.67,4-.67,8,0,12,1.65,.9,3.15,1.9,4.5,3h-34v-1h27v-8h-14c-4.53,.32-8.87-.02-13-1h28c.27-1.6-.07-2.93-1-4,.55-2.77,1.88-5.1,4-7-2.18-2.24-4.51-4.24-7-6Z"/>
  <path class="cls-52" d="M224.12,141.95c.6,1.14,.94,2.14,1,3-9.91,7.97-20.24,15.47-31,22.5-2.76,.58-5.42,.25-8-1,12.84-8.02,25.5-16.19,38-24.5Z"/>
  <path class="cls-1" d="M240.12,136.95c.06-.54,.39-.88,1-1,1.32,9.83,1.32,19.49,0,29,.33-9.52,0-18.85-1-28Z"/>
  <path class="cls-50" d="M162.12,154.95c-2.12,4.08-5.46,6.74-10,8-1.97-.94-3.97-1.94-6-3-1.33-.67-1.33-1.33,0-2,3.93-1.88,7.76-3.88,11.5-6,1.67,.85,3.17,1.85,4.5,3Z"/>
  <path class="cls-34" d="M92.12,146.95c-.72,1.64-.88,3.3-.5,5,5.38,4.22,10.88,8.22,16.5,12,2.49,1.76,4.82,3.76,7,6-2.12,1.9-3.45,4.23-4,7-3.95,1.33-8.28,1.99-13,2-4.33-.17-8.67-.33-13-.5-4.24-4.74-8.91-8.91-14-12.5v-21c7.41-.63,14.41,.04,21,2Z"/>
  <path class="cls-55" d="M148.12,147.95c1.37,1.01,2.71,2.01,4,3-3.68,2.51-7.68,4.51-12,6-2.67-2.67-5.33-5.33-8-8,5.43-.3,10.76-.64,16-1Z"/>
  <path class="cls-69" d="M96.12,132.95c1.56,.23,2.9,.9,4,2,7.07,3.13,14.4,5.47,22,7,.17,7.34,0,14.67-.5,22-1.04,.87-1.88,1.87-2.5,3-2.45-.11-4.45-1.11-6-3-5.99-5.49-11.82-11.16-17.5-17-.67-3.67-.67-7.33,0-11,1.73-.85,1.9-1.85,.5-3Z"/>
  <path class="cls-93" d="M92.12,146.95c-6.59-1.96-13.59-2.63-21-2v21c-.99-6.81-1.32-13.81-1-21,7.48-.99,15.15-1.33,23-1,.24,1.29-.1,2.29-1,3Z"/>
  <path class="cls-43" d="M240.12,136.95c.99,9.15,1.33,18.48,1,28-10.86,7.26-21.86,14.26-33,21-.44,.07-.77-.1-1-.5,6.68-12.18,12.68-24.68,18-37.5,4.82-3.91,9.82-7.58,15-11Z"/>
  <path class="cls-6" d="M124.12,130.95c7.98,5.64,15.98,11.31,24,17-5.24,.36-10.57,.7-16,1-2.95-1.61-5.62-3.61-8-6v-12Z"/>
  <path class="cls-12" d="M202.12,132.95c6.86,1.76,13.52,4.1,20,7-12.08,9.06-24.75,17.39-38,25-7.09-4.53-13.76-9.53-20-15,7.11-.92,14.11-2.42,21-4.5,4.92-5.13,10.58-9.3,17-12.5Z"/>
  <path class="cls-66" d="M198.12,129.95c1.33,1,2.67,2,4,3-6.42,3.2-12.08,7.37-17,12.5-6.89,2.08-13.89,3.58-21,4.5,10.2-7.48,21.54-14.14,34-20Z"/>
  <path class="cls-70" d="M122.12,129.95v12c-7.6-1.53-14.93-3.87-22-7,6.93-2.85,14.26-4.52,22-5Z"/>
  <path class="cls-45" d="M222.12,126.95v13c-6.48-2.9-13.14-5.24-20-7-1.33-1-2.67-2-4-3v-1c7.96-1.1,15.96-1.77,24-2Z"/>
  <path class="cls-29" d="M124.12,108.95h1c.08,1.25,.74,2.08,2,2.5,9.25,4.46,18.58,8.63,28,12.5v26c-.89,.61-1.89,.94-3,1-1.29-.99-2.63-1.99-4-3-8.02-5.69-16.02-11.36-24-17v-22Z"/>
  <path class="cls-86" d="M187.12,112.95c1.54,.8,3.21,1.13,5,1,7,1.16,14.17,2.16,21.5,3,2.42-.03,4.76-.36,7-1,.28,.92,.78,1.58,1.5,2v9c-8.04,.23-16.04,.9-24,2-3.65-.91-7.15-2.24-10.5-4-.5-3.99-.67-7.99-.5-12Z"/>
  <path class="cls-88" d="M79.12,96.95h13c.17,14.67,0,29.34-.5,44-7.26,1.33-14.43,1.33-21.5,0,3.68,.17,7.35,0,11-.5-.63-1.89-1.63-3.56-3-5l1-1c-2.2-7.57-2.2-15.23,0-23l-1-1c1.92-3.98,3.92-7.82,6-11.5,1.7,.16,3.37,0,5-.5-3.52-.18-6.86-.68-10-1.5Z"/>
  <path class="cls-38" d="M277.12,101.95c5.48,1.96,10.64,4.62,15.5,8,.67,6.33,.67,12.67,0,19-3.41,2.26-6.91,4.26-10.5,6h-3c.61-11.26-.06-22.26-2-33Z"/>
  <path class="cls-3" d="M70.12,96.95h9c3.14,.82,6.48,1.32,10,1.5-1.63,.49-3.3,.66-5,.5-2.08,3.68-4.08,7.52-6,11.5l1,1c-2.2,7.77-2.2,15.43,0,23l-1,1c1.37,1.44,2.37,3.11,3,5-3.65,.5-7.32,.67-11,.5v-44Z"/>
  <path class="cls-37" d="M219.12,89.95h1c-.7,2.88-2.37,5.04-5,6.5,.33,.33,.67,.67,1,1-3.17,1.17-5.34,3.34-6.5,6.5-.33-.33-.67-.67-1-1-2.32,4.32-5.82,7.15-10.5,8.5-1.33,.67-1.33,1.33,0,2-1.97,.49-3.97,.66-6,.5-1.79,.13-3.46-.2-5-1-.67-.67-1.33-1.33-2-2,10.15-6.91,20.82-13.08,32-18.5,.88-.71,1.55-1.54,2-2.5Z"/>
  <path class="cls-74" d="M151.12,94.95c1.32-.17,2.49,.16,3.5,1,.5,9.33,.67,18.66,.5,28-9.42-3.87-18.75-8.04-28-12.5-1.26-.42-1.92-1.25-2-2.5v-1c8.36-4.85,17.02-9.18,26-13Z"/>
  <path class="cls-63" d="M277.12,101.95c1.94,10.74,2.61,21.74,2,33h3c-1.51,1.94-3.51,2.44-6,1.5-4.33-2.5-8.67-5-13-7.5-1.33-6.33-1.33-12.67,0-19,4.69-2.68,9.36-5.35,14-8Z"/>
  <path class="cls-11" d="M241.12,132.95c-5.03,4.35-10.36,8.35-16,12-.06-.86-.4-1.86-1-3v-1c.67-5.18,1.33-10.51,2-16,4.04-7.96,8.54-15.63,13.5-23,1.37,10.28,1.87,20.61,1.5,31Z"/>
  <path class="cls-21" d="M96.12,93.95c-.17,.99,.16,1.66,1,2,8.14,4.57,16.48,8.9,25,13v21c-7.74,.48-15.07,2.15-22,5-1.1-1.1-2.44-1.77-4-2-1.33-13-1.33-26,0-39Z"/>
  <path class="cls-84" d="M220.12,89.95c.62,.11,1.12,.44,1.5,1,.5,8.99,.67,17.99,.5,27-.72-.42-1.22-1.08-1.5-2-2.24,.64-4.58,.97-7,1-7.33-.84-14.5-1.84-21.5-3,2.03,.16,4.03,0,6-.5-1.33-.67-1.33-1.33,0-2,4.68-1.35,8.18-4.18,10.5-8.5,.33,.33,.67,.67,1,1,1.16-3.16,3.33-5.33,6.5-6.5-.33-.33-.67-.67-1-1,2.63-1.46,4.3-3.62,5-6.5Z"/>
  <path class="cls-35" d="M59.12,88.95c2.03,2.02,4.37,3.69,7,5,.79,.28,1.46,.78,2,1.5-1.27,.9-2.27,2.07-3,3.5-2.6-1.21-5.1-2.55-7.5-4-4.15,2.99-8.65,5.32-13.5,7v-1c3.5-3.14,6.17-6.98,8-11.5,2.31-.5,4.64-.66,7-.5Z"/>
  <path class="cls-73" d="M122.12,88.95v20c-8.52-4.1-16.86-8.43-25-13,1.29-.56,2.12-1.56,2.5-3,7.05,3.21,13.72,2.21,20-3,.33,.67,.67,1.33,1,2,.23-1.24,.73-2.24,1.5-3Z"/>
  <path class="cls-89" d="M241.12,76.95c1.33,18.67,1.33,37.33,0,56,.37-10.39-.13-20.72-1.5-31-4.96,7.37-9.46,15.04-13.5,23-.67,5.49-1.33,10.82-2,16v-51h1c-.33,6.74,.17,13.41,1.5,20,2.66-8.33,7.32-15.33,14-21,.5-3.65,.67-7.32,.5-11v-1Z"/>
  <path class="cls-57" d="M208.12,83.95c3.86,1.76,7.53,3.76,11,6-.45,.96-1.12,1.79-2,2.5-11.18,5.42-21.85,11.59-32,18.5-.89-.61-1.89-.94-3-1-.67-.67-1.33-1.33-2-2,.44,.07,.77-.1,1-.5-.83-.91-1.83-1.58-3-2,5.31-2.9,10.14-6.4,14.5-10.5,1.81-.58,3.64-1.08,5.5-1.5,2.13-2.46,4.8-4.12,8-5,1.54-1.11,2.2-2.61,2-4.5Z"/>
  <path class="cls-65" d="M188.12,74.95c6.83,2.59,13.49,5.59,20,9,.2,1.89-.46,3.39-2,4.5-3.2,.88-5.87,2.54-8,5-1.86,.42-3.69,.92-5.5,1.5-4.36,4.1-9.19,7.6-14.5,10.5,1.17,.42,2.17,1.09,3,2-.23,.4-.56,.57-1,.5-6.97-3.82-13.97-7.65-21-11.5,9.28-7.79,18.95-14.96,29-21.5Z"/>
  <path class="cls-39" d="M44.12,80.95v21c-3.98-2.31-7.98-4.64-12-7,1.76-5.95,3.76-11.95,6-18,1.75,1.75,3.75,3.09,6,4Z"/>
  <path class="cls-48" d="M139.12,85.95c4.63,2.32,8.63,5.32,12,9-8.98,3.82-17.64,8.15-26,13-.17-6.34,0-12.68,.5-19,.33,1.67,.67,3.33,1,5,2.58-5.04,6.74-7.71,12.5-8Z"/>
  <path class="cls-58" d="M122.12,88.95c-.77,.76-1.27,1.76-1.5,3-.33-.67-.67-1.33-1-2-6.28,5.21-12.95,6.21-20,3-.38,1.44-1.21,2.44-2.5,3-.84-.34-1.17-1.01-1-2,8.48-6.08,16.82-12.41,25-19,.99,4.62,1.33,9.29,1,14Z"/>
  <path class="cls-32" d="M58.12,77.95h1v11c-2.36-.16-4.69,0-7,.5-1.83,4.52-4.5,8.36-8,11.5v-20c4.89-.37,9.56-1.37,14-3Z"/>
  <path class="cls-27" d="M241.12,77.95c.17,3.68,0,7.35-.5,11-6.68,5.67-11.34,12.67-14,21-1.33-6.59-1.83-13.26-1.5-20,5.62-3.62,10.95-7.62,16-12Z"/>
  <path class="cls-51" d="M181.12,75.95c-7.67,6.6-15.84,12.6-24.5,18-4-2.51-7.84-5.18-11.5-8,1.24-.31,1.24-.81,0-1.5,3.65-.77,7.31-1.44,11-2,1.36-1.58,2.03-3.42,2-5.5,6.86-.31,13.36-.31,19.5,0,.95-1.87,2.12-2.21,3.5-1Z"/>
  <path class="cls-75" d="M139.12,85.95c-5.76,.29-9.92,2.96-12.5,8-.33-1.67-.67-3.33-1-5-.5,6.32-.67,12.66-.5,19v1h-1c-.17-11.01,0-22.01,.5-33,4.99,3.23,9.82,6.57,14.5,10Z"/>
  <path class="cls-49" d="M159.12,67.95c2.36,.17,4.69,.51,7,1,5.81,1.96,11.81,3.62,18,5-.47,1.41-1.47,2.07-3,2-1.38-1.21-2.55-.87-3.5,1-6.14-.31-12.64-.31-19.5,0,.03,2.08-.64,3.92-2,5.5-3.69,.56-7.35,1.23-11,2,1.24,.69,1.24,1.19,0,1.5-3.74-2.2-7.07-4.86-10-8,.98-3.37,2.48-4.04,4.5-2,5.77-.4,11.61-.4,17.5,0-.54-3.2,.13-5.87,2-8Z"/>
  <path class="cls-76" d="M104.12,56.95v25c-.82-3.14-1.32-6.48-1.5-10-.75,2.55-2.42,4.22-5,5l-1-1c-2.33,1-4.67,2-7,3-.41-.46-.91-.79-1.5-1-6.14,5.73-7.14,5.23-3-1.5l-2.5-2.5c-1.31,3.6-2.97,6.94-5,10l-3.5,3.5c.67,.33,1.33,.67,2,1-2.23,2.06-4.23,4.23-6,6.5-.33-6.04,0-12.04,1-18,2.58-1.44,4.91-3.11,7-5,7.01-3.5,13.67-7.5,20-12,2.28-.48,4.28-1.48,6-3Z"/>
  <path class="cls-60" d="M44.12,68.95v12c-2.25-.91-4.25-2.25-6-4-2.24,6.05-4.24,12.05-6,18-.62-.11-1.12-.44-1.5-1-.67-5.67-.67-11.33,0-17,4.45-2.8,8.95-5.47,13.5-8Z"/>
  <path class="cls-56" d="M104.12,81.95c-4.02,5.02-8.02,10.02-12,15h-22v-2c1.77-2.27,3.77-4.44,6-6.5-.67-.33-1.33-.67-2-1l3.5-3.5c2.03-3.06,3.69-6.4,5-10l2.5,2.5c-4.14,6.73-3.14,7.23,3,1.5,.59,.21,1.09,.54,1.5,1,2.33-1,4.67-2,7-3l1,1c2.58-.78,4.25-2.45,5-5,.18,3.52,.68,6.86,1.5,10Z"/>
  <path class="cls-42" d="M44.12,68.95c5.01,2.5,9.68,5.5,14,9-4.44,1.63-9.11,2.63-14,3v-12Z"/>
  <path class="cls-71" d="M135.12,59.95h1c4.76,2.8,10.09,4.47,16,5,2.39,.85,4.72,1.85,7,3-1.87,2.13-2.54,4.8-2,8-5.89-.4-11.73-.4-17.5,0-2.02-2.04-3.52-1.37-4.5,2-2.98-2.31-5.65-4.98-8-8,2.59-1.88,5.09-3.88,7.5-6,.49-1.29,.66-2.63,.5-4Z"/>
  <path class="cls-25" d="M173.12,63.95c3.51,2.67,7.18,5.17,11,7.5,1.27,.98,1.27,1.81,0,2.5-6.19-1.38-12.19-3.04-18-5,2.88-.88,5.21-2.55,7-5Z"/>
  <path class="cls-77" d="M199.12,51.95c-.99,8.15-1.33,16.48-1,25-1.32-8.51-1.32-17.18,0-26,.61,.12,.94,.46,1,1Z"/>
  <path class="cls-87" d="M199.12,51.95c14.66,7.33,28.66,15.66,42,25v1c-5.05,4.38-10.38,8.38-16,12h-1c-8.73-4.37-17.4-8.7-26-13-.33-8.52,0-16.85,1-25Z"/>
  <path class="cls-82" d="M246.12,50.95c2.05,1.06,3.39,2.73,4,5-6.14,4.24-12.47,8.24-19,12-1.91-.87-3.75-1.87-5.5-3-.09-1.61,.74-2.78,2.5-3.5,5.86-3.76,11.86-7.26,18-10.5Z"/>
  <path class="cls-36" d="M164.12,57.95c3.18,1.76,6.18,3.76,9,6-1.79,2.45-4.12,4.12-7,5-2.31-.49-4.64-.83-7-1-2.28-1.15-4.61-2.15-7-3,1.05,.15,2.05-.02,3-.5,2.35-3.17,5.35-5.33,9-6.5Z"/>
  <path class="cls-62" d="M151.12,48.95c5.14,1.8,9.47,4.8,13,9-3.65,1.17-6.65,3.33-9,6.5-.95,.48-1.95,.65-3,.5-5.91-.53-11.24-2.2-16-5,4.82-3.91,9.82-7.58,15-11Z"/>
  <path class="cls-20" d="M130.12,35.95c1.33,4.28,1.99,8.95,2,14-.33,4.67-.67,9.33-1,14-6.33,4-12.67,8-19,12-1.16-8.65-1.33-17.31-.5-26,6.63-4.15,12.8-8.81,18.5-14Z"/>
  <path class="cls-5" d="M104.12,56.95c-1.72,1.52-3.72,2.52-6,3-5.33-3.33-10.67-6.67-16-10-4.11-2.57-8.11-5.4-12-8.5,1.76-1.3,3.6-2.46,5.5-3.5,9.98,5.73,19.48,12.06,28.5,19Z"/>
  <path class="cls-40" d="M302.12,17.95c1.16,11.16,1.33,22.49,.5,34-8.79,6.31-17.95,11.98-27.5,17-7.46-4.23-14.8-8.73-22-13.5-1.08-.47-2.08-.3-3,.5-.61-2.27-1.95-3.94-4-5,.67,0,1-.33,1-1,9.63-4.48,18.96-9.48,28-15h1c2.76,1.58,5.43,3.41,8,5.5,1.4,.6,2.73,.43,4-.5,1.36-3.91,3.19-7.58,5.5-11,.74-1.25,.57-2.25-.5-3,1.93-1.97,4.26-3.47,7-4.5,1.32-.82,1.99-1.98,2-3.5Z"/>
  <path class="cls-7" d="M136.12,32.95c-.17,4.35,0,8.68,.5,13,.33-1.33,.67-2.67,1-4,1.02,1.13,1.68,.8,2-1,.33,1,.67,2,1,3,1.28-3.62,3.62-6.28,7-8,1.49,2.23,2.82,4.56,4,7,.38-.56,.88-.89,1.5-1,.33,2.69-.33,5.02-2,7-5.18,3.42-10.18,7.09-15,11h-1c-.33-9.18,0-18.18,1-27Z"/>
  <path class="cls-67" d="M157.12,21.95c9.05,7.05,18.39,13.72,28,20,1.85,1.09,3.52,2.43,5,4,.33,7.36,0,14.7-1,22-11.23-6.44-22.23-13.11-33-20-.33-8.85,0-17.52,1-26Z"/>
  <path class="cls-85" d="M293.12,25.95c1.07,.75,1.24,1.75,.5,3-2.31,3.42-4.14,7.09-5.5,11-1.27,.93-2.6,1.1-4,.5-2.57-2.09-5.24-3.92-8-5.5,5.83-2.74,11.49-5.74,17-9Z"/>
  <path class="cls-17" d="M252.12,21.95c7.79,4.07,15.46,8.4,23,13-9.04,5.52-18.37,10.52-28,15-.17-10.01,0-20.01,.5-30,1.33,1.08,2.83,1.75,4.5,2Z"/>
  <path class="cls-59" d="M157.12,21.95c-.99,8.48-1.33,17.15-1,26-1.32-8.84-1.32-17.84,0-27,.61,.12,.94,.46,1,1Z"/>
  <path class="cls-92" d="M153.12,41.95c-.62,.11-1.12,.44-1.5,1-1.18-2.44-2.51-4.77-4-7-3.38,1.72-5.72,4.38-7,8-.33-1-.67-2-1-3-.32,1.8-.98,2.13-2,1-.33,1.33-.67,2.67-1,4-.5-4.32-.67-8.65-.5-13,5.38-4.11,10.88-8.11,16.5-12,.5,6.99,.67,13.99,.5,21Z"/>
  <path class="cls-10" d="M172.12,21.95c5.19,3.86,10.36,7.86,15.5,12,.81,2.08,.64,4.08-.5,6-.68-.36-1.35-.7-2-1-10.6-7.65-21.27-15.31-32-23-13.36,10.52-26.86,20.86-40.5,31,.7-4.1,2.03-8.1,4-12,7.05-5.22,14.21-10.22,21.5-15,5.4-3.45,10.9-6.79,16.5-10,5.98,3.82,11.81,7.82,17.5,12Z"/>
  <path class="cls-26" d="M261.12,8.95c-.78,3.63-2.28,6.96-4.5,10-1.4,1.25-2.9,2.25-4.5,3-1.67-.25-3.17-.92-4.5-2-.5,9.99-.67,19.99-.5,30,0,.67-.33,1-1,1-.17-11.01,0-22.01,.5-33,4.95-2.89,9.78-5.89,14.5-9Z"/>
  <path class="cls-53" d="M277.12,.95c8.54,5.43,16.88,11.1,25,17-.01,1.52-.68,2.68-2,3.5-2.74,1.03-5.07,2.53-7,4.5-5.51,3.26-11.17,6.26-17,9-.33-11.51,0-22.85,1-34Z"/>
  <path class="cls-46" d="M277.12,.95c-.99,11.15-1.33,22.49-1,34h-1c-7.54-4.6-15.21-8.93-23-13,1.6-.75,3.1-1.75,4.5-3,2.22-3.04,3.72-6.37,4.5-10,4.3-2.82,8.64-5.66,13-8.5,1.25-.74,2.25-.57,3,.5Z"/>
  <path class="cls-9" d="M205.12,195.95c4.19,1.42,5.86,4.42,5,9,.17,2.12-.16,4.12-1,6-2.67,1.67-5.33,3.33-8,5v-20h4Z"/>
  <path class="cls-4" d="M25.12,195.95c-.99,9.49-1.33,19.15-1,29-8.24-4.24-16.24-8.91-24-14l12-9c3.47-1.91,6.81-4.07,10-6.5,1.25-.74,2.25-.57,3,.5Z"/>
  <path class="cls-80" d="M164.12,227.95c.91,3.23,1.25,6.56,1,10-2.74,1.79-5.57,3.45-8.5,5-3.31-1.81-6.47-3.81-9.5-6-8.05-6.2-16.55-11.86-25.5-17-.33-6.67-.67-13.33-1-20-2.33-1.67-4.67-3.33-7-5-.75-1.14-.58-2.14,.5-3,4.9,4.04,10.07,7.7,15.5,11,.17,5.03,.67,10.03,1.5,15,7.37,5.21,14.87,10.21,22.5,15,3.19-2.36,6.69-4.03,10.5-5Z"/>
  <path class="cls-8" d="M154.12,190.95h1c-.33,8.18,0,16.18,1,24-1,1.33-2,1.33-3,0,.99-7.82,1.33-15.82,1-24Z"/>
  <path class="cls-78" d="M25.12,195.95c7.94,4.61,15.61,9.61,23,15-7.67,4.67-15.33,9.33-23,14h-1c-.33-9.85,0-19.51,1-29Z"/>
  <path class="cls-24" d="M272.12,194.95c-.17,.99,.16,1.66,1,2,1.18,1.19,1.18,2.36,0,3.5-5.33,3.33-10.67,6.67-16,10-2.57,.61-4.9,.11-7-1.5,6.58-5.64,13.92-10.3,22-14Z"/>
  <path class="cls-22" d="M210.12,204.95c4.27,1.14,7.94,3.3,11,6.5-1.27,1.22-2.77,2.05-4.5,2.5-2.44-1.3-4.94-2.3-7.5-3,.84-1.88,1.17-3.88,1-6Z"/>
  <path class="cls-44" d="M240.12,205.95c-.99,7.48-1.33,15.15-1,23-7.16-3.41-14.16-7.08-21-11-.09-1,.25-1.83,1-2.5,5.67-3.67,11.33-7.33,17-11,1.64-.35,2.97,.15,4,1.5Z"/>
  <path class="cls-16" d="M191.12,204.95v7c-8.5,6.17-17.5,11.5-27,16-1.16-.77-2.16-1.77-3-3,9.72-7.05,19.72-13.72,30-20Z"/>
  <path class="cls-14" d="M240.12,205.95c2.33,1.33,4.67,2.67,7,4,1.93,1.97,4.26,3.47,7,4.5,1.32,.82,1.99,1.98,2,3.5-.99-.17-1.66,.16-2,1-5.17,3.08-10.17,6.42-15,10-.33-7.85,0-15.52,1-23Z"/>
  <path class="cls-30" d="M48.12,210.95c.33,10.18,0,20.18-1,30-8.71-3.86-17.04-8.52-25-14,1-.67,2-1.33,3-2,7.67-4.67,15.33-9.33,23-14Z"/>
  <path class="cls-81" d="M.12,210.95c7.76,5.09,15.76,9.76,24,14h1c-1,.67-2,1.33-3,2-7.21,4.43-14.21,9.1-21,14-.99-9.82-1.33-19.82-1-30Z"/>
  <path class="cls-31" d="M218.12,217.95c6.84,3.92,13.84,7.59,21,11-1.31,7.43-1.31,14.77,0,22-.75,1.07-1.75,1.24-3,.5-5.75-3.63-11.58-7.13-17.5-10.5-.5-7.66-.67-15.33-.5-23Z"/>
  <path class="cls-41" d="M254.12,218.95c.99,6.81,1.33,13.81,1,21-2,1.67-4,3.33-6,5-3.33,2-6.67,4-10,6-1.31-7.23-1.31-14.57,0-22,4.83-3.58,9.83-6.92,15-10Z"/>
  <path class="cls-68" d="M254.12,218.95c.34-.84,1.01-1.17,2-1,.33,7.52,0,14.85-1,22,.33-7.19,0-14.19-1-21Z"/>
  <path class="cls-79" d="M22.12,226.95c7.96,5.48,16.29,10.14,25,14-1.85,1.09-3.52,2.43-5,4-5.96,3.61-11.96,7.28-18,11-7.87-4.76-15.53-9.76-23-15,6.79-4.9,13.79-9.57,21-14Z"/>
</svg>